<?xml version="1.0" standalone="no"?>
<!DOCTYPE svg PUBLIC "-//W3C//DTD SVG 20010904//EN"
 "http://www.w3.org/TR/2001/REC-SVG-20010904/DTD/svg10.dtd">
<svg version="1.0" xmlns="http://www.w3.org/2000/svg"
 width="915.000000pt" height="81.000000pt" viewBox="0 0 915.000000 81.000000"
 preserveAspectRatio="xMidYMid meet">

    <g transform="translate(0.000000,81.000000) scale(0.100000,-0.100000)"
        fill="#140A03" stroke="none">
<path d="M4630 783 c-85 -15 -2089 -346 -2195 -363 -71 -11 -182 -29 -245 -40
-63 -11 -254 -43 -425 -70 -170 -28 -391 -64 -490 -80 -99 -16 -416 -68 -705
-115 -589 -95 -570 -92 -570 -105 0 -7 1598 -10 4575 -10 3689 0 4575 3 4575
13 0 8 -61 23 -192 45 -106 18 -373 64 -593 102 -220 39 -515 90 -655 115
-330 57 -1500 261 -2120 370 -267 47 -561 99 -655 115 -157 28 -242 34 -305
23z"/>
</g>
</svg>
